# xmcd CD database file
#
# Track frame offsets:
#	182
#	22662
#	36677
#	50175
#	63275
#	80285
#	92020
#	108585
#	121460
#	133140
#
# Disc length: 2017 seconds
#
# Revision: 2
# Processed by: cddbd v1.4PL0 Copyright (c) Steve Scherf et al.
# Submitted via: CDex 1.50beta10
#
DISCID=8807df0a
DTITLE=Ike and Tina Turner - Greatest Hits
DYEAR=1990
DGENRE=
TTITLE0=Proud Mary
TTITLE1=It's Gonna Work Out Fine
TTITLE2=Nutbush City Limits
TTITLE3=A Fool In Love
TTITLE4=I Want To Take You Higher
TTITLE5=Poor Fool
TTITLE6=Come Together
TTITLE7=Stagger Lee and Billy
TTITLE8=I'm Blue (The Ikettes)
TTITLE9=River Deep, Mountain High
EXTD=YEAR: 1990
EXTT0=
EXTT1=
EXTT2=
EXTT3=
EXTT4=
EXTT5=
EXTT6=
EXTT7=
EXTT8=
EXTT9=
PLAYORDER=
